<mxfile host="app.diagrams.net" modified="2024-04-02T17:30:35.754Z" agent="Mozilla/5.0 (X11; Linux x86_64; rv:124.0) Gecko/20100101 Firefox/124.0" version="24.2.1" etag="zztxw-Tc4V_-4-hXPk3x" type="github">
  <diagram name="Page-1" id="5VcUB1MafaQKe5btqZdp">
    <mxGraphModel>
      <root>
        <mxCell id="0" />
        <mxCell id="1" parent="0" />
      </root>
    </mxGraphModel>
  </diagram>
</mxfile>
